<svg width="63" height="27" viewBox="0 0 63 27" fill="none" xmlns="http://www.w3.org/2000/svg">
<g id="logo" clip-path="url(#clip0_37_1890)">
<path id="Vector" d="M0.564453 21H13.2485V17.444H5.10045V0.97998H0.564453V21Z" fill="black"/>
<path id="Vector_2" d="M21.5874 18.228C19.2914 18.228 18.0034 16.548 18.0034 13.748V13.524C18.0034 10.724 19.3474 9.10002 21.5874 9.10002C23.8554 9.10002 25.1714 10.78 25.1714 13.58V13.776C25.1714 16.548 23.8554 18.228 21.5874 18.228ZM21.5594 21.308C25.9554 21.308 29.2874 18.368 29.2874 13.748V13.524C29.2874 8.96002 25.9834 6.02002 21.5874 6.02002C17.1914 6.02002 13.8594 9.01602 13.8594 13.608V13.832C13.8594 18.396 17.1914 21.308 21.5594 21.308Z" fill="black"/>
<path id="Vector_3" d="M37.6654 26.404C42.4814 26.404 45.3654 24.192 45.3934 19.852V6.35602H41.3614V8.54002C40.5214 7.05602 39.0934 6.02002 36.7134 6.02002C33.0734 6.02002 30.2734 8.96002 30.2734 13.16V13.356C30.2734 17.696 33.1014 20.356 36.6574 20.356C38.8134 20.356 40.5494 19.068 41.3614 17.64V19.852C41.3614 22.148 40.1294 23.436 37.6654 23.436C35.5934 23.436 34.6694 22.596 34.4174 21.308H30.3854C30.7774 24.332 32.9334 26.404 37.6654 26.404ZM37.8614 17.304C35.8454 17.304 34.4174 15.792 34.4174 13.356V13.132C34.4174 10.724 35.6774 9.10002 37.9454 9.10002C40.1574 9.10002 41.4734 10.612 41.4734 13.104V13.3C41.4734 15.792 39.9894 17.304 37.8614 17.304Z" fill="black"/>
<path id="Vector_4" d="M54.9624 18.228C52.6664 18.228 51.3784 16.548 51.3784 13.748V13.524C51.3784 10.724 52.7224 9.10002 54.9624 9.10002C57.2304 9.10002 58.5464 10.78 58.5464 13.58V13.776C58.5464 16.548 57.2304 18.228 54.9624 18.228ZM54.9344 21.308C59.3304 21.308 62.6624 18.368 62.6624 13.748V13.524C62.6624 8.96002 59.3584 6.02002 54.9624 6.02002C50.5664 6.02002 47.2344 9.01602 47.2344 13.608V13.832C47.2344 18.396 50.5664 21.308 54.9344 21.308Z" fill="black"/>
</g>
<defs>
<clipPath id="clip0_37_1890">
<rect width="63" height="27" fill="white"/>
</clipPath>
</defs>
</svg>
