<svg width="63" height="28" viewBox="0 0 63 28" fill="none" xmlns="http://www.w3.org/2000/svg">
<path d="M0.5625 21.5H13.2465V17.944H5.0985V1.47998H0.5625V21.5Z" fill="url(#paint0_linear_210_6)"/>
<path d="M21.5874 18.728C19.2914 18.728 18.0034 17.048 18.0034 14.248V14.024C18.0034 11.224 19.3474 9.60002 21.5874 9.60002C23.8554 9.60002 25.1714 11.28 25.1714 14.08V14.276C25.1714 17.048 23.8554 18.728 21.5874 18.728ZM21.5594 21.808C25.9554 21.808 29.2874 18.868 29.2874 14.248V14.024C29.2874 9.46002 25.9834 6.52002 21.5874 6.52002C17.1914 6.52002 13.8594 9.51602 13.8594 14.108V14.332C13.8594 18.896 17.1914 21.808 21.5594 21.808Z" fill="url(#paint1_linear_210_6)"/>
<path d="M37.6654 26.904C42.4814 26.904 45.3654 24.692 45.3934 20.352V6.85602H41.3614V9.04002C40.5214 7.55602 39.0934 6.52002 36.7134 6.52002C33.0734 6.52002 30.2734 9.46002 30.2734 13.66V13.856C30.2734 18.196 33.1014 20.856 36.6574 20.856C38.8134 20.856 40.5494 19.568 41.3614 18.14V20.352C41.3614 22.648 40.1294 23.936 37.6654 23.936C35.5934 23.936 34.6694 23.096 34.4174 21.808H30.3854C30.7774 24.832 32.9334 26.904 37.6654 26.904ZM37.8614 17.804C35.8454 17.804 34.4174 16.292 34.4174 13.856V13.632C34.4174 11.224 35.6774 9.60002 37.9454 9.60002C40.1574 9.60002 41.4734 11.112 41.4734 13.604V13.8C41.4734 16.292 39.9894 17.804 37.8614 17.804Z" fill="url(#paint2_linear_210_6)"/>
<path d="M54.9624 18.728C52.6664 18.728 51.3784 17.048 51.3784 14.248V14.024C51.3784 11.224 52.7224 9.60002 54.9624 9.60002C57.2304 9.60002 58.5464 11.28 58.5464 14.08V14.276C58.5464 17.048 57.2304 18.728 54.9624 18.728ZM54.9344 21.808C59.3304 21.808 62.6624 18.868 62.6624 14.248V14.024C62.6624 9.46002 59.3584 6.52002 54.9624 6.52002C50.5664 6.52002 47.2344 9.51602 47.2344 14.108V14.332C47.2344 18.896 50.5664 21.808 54.9344 21.808Z" fill="url(#paint3_linear_210_6)"/>
<defs>
<linearGradient id="paint0_linear_210_6" x1="6.90452" y1="1.47998" x2="6.90452" y2="21.5" gradientUnits="userSpaceOnUse">
<stop stop-color="#7C4FFC"/>
<stop offset="1" stop-color="#51B7FA"/>
</linearGradient>
<linearGradient id="paint1_linear_210_6" x1="21.5734" y1="6.52002" x2="21.5734" y2="21.808" gradientUnits="userSpaceOnUse">
<stop stop-color="#7C4FFC"/>
<stop offset="1" stop-color="#51B7FA"/>
</linearGradient>
<linearGradient id="paint2_linear_210_6" x1="37.8334" y1="6.52002" x2="37.8334" y2="26.904" gradientUnits="userSpaceOnUse">
<stop stop-color="#7C4FFC"/>
<stop offset="1" stop-color="#51B7FA"/>
</linearGradient>
<linearGradient id="paint3_linear_210_6" x1="54.9484" y1="6.52002" x2="54.9484" y2="21.808" gradientUnits="userSpaceOnUse">
<stop stop-color="#7C4FFC"/>
<stop offset="1" stop-color="#51B7FA"/>
</linearGradient>
</defs>
</svg>
