<svg width="20" height="20" viewBox="0 0 20 20" fill="none" xmlns="http://www.w3.org/2000/svg">
<path d="M3.69958 8.275L4.49958 8.875V7.875V6C4.49958 4.54131 5.07904 3.14236 6.11049 2.11091C7.14194 1.07946 8.54089 0.5 9.99958 0.5C11.4583 0.5 12.8572 1.07946 13.8887 2.11091C14.9201 3.14236 15.4996 4.54131 15.4996 6V7.875V8.875L16.2996 8.275L17.1996 7.6C17.3057 7.52044 17.439 7.48627 17.5703 7.50503C17.7016 7.52378 17.82 7.59391 17.8996 7.7C17.9791 7.80609 18.0133 7.93944 17.9946 8.07071C17.9758 8.20199 17.9057 8.32044 17.7996 8.4L17.7995 8.40005L15.9335 9.80005L15.6325 10.0259L15.7662 10.3777C16.2626 11.6835 17.4421 12.9815 19.2537 14.0702C19.3111 14.1057 19.3608 14.1522 19.4001 14.2071C19.4397 14.2625 19.4678 14.3253 19.4828 14.3917C19.4978 14.4582 19.4993 14.527 19.4872 14.594C19.4753 14.6603 19.4504 14.7236 19.4139 14.7802C18.3543 16.3681 16.7179 17.5 14.9996 17.5C13.9786 17.5 13.134 18.047 12.4156 18.5122C12.3804 18.535 12.3455 18.5576 12.311 18.5799C11.5241 19.0877 10.8385 19.5 9.99958 19.5C9.16973 19.5 8.48284 19.088 7.69156 18.5794C7.65748 18.5575 7.62311 18.5353 7.58845 18.513C6.86677 18.0476 6.01773 17.5 4.99958 17.5C3.28121 17.5 1.64488 16.3682 0.585304 14.7802C0.548805 14.7236 0.523872 14.6603 0.511954 14.594C0.499899 14.527 0.5014 14.4582 0.516368 14.3917C0.531335 14.3253 0.559466 14.2625 0.5991 14.2071C0.638348 14.1522 0.688088 14.1057 0.745433 14.0702C2.55705 12.9815 3.73655 11.6835 4.23295 10.3777L4.36667 10.0259L4.06565 9.80005L2.19965 8.40005L2.19958 8.4C2.14705 8.3606 2.10279 8.31124 2.06934 8.25475C2.03589 8.19825 2.01389 8.13571 2.0046 8.07071C1.99532 8.00571 1.99892 7.93952 2.01522 7.87591C2.03152 7.8123 2.06018 7.75253 2.09958 7.7C2.13897 7.64747 2.18833 7.60322 2.24483 7.56976C2.30133 7.53631 2.36386 7.51431 2.42887 7.50503C2.49387 7.49574 2.56006 7.49935 2.62367 7.51564C2.68727 7.53194 2.74705 7.5606 2.79958 7.6L3.69958 8.275Z" fill="white" stroke="black"/>
</svg>
