<svg xmlns="http://www.w3.org/2000/svg" width="24" height="25" viewBox="0 0 24 25" fill="none">
<path d="M4 13.2391H10C10.55 13.2391 11 12.7891 11 12.2391V4.23907C11 3.68907 10.55 3.23907 10 3.23907H4C3.45 3.23907 3 3.68907 3 4.23907V12.2391C3 12.7891 3.45 13.2391 4 13.2391ZM4 21.2391H10C10.55 21.2391 11 20.7891 11 20.2391V16.2391C11 15.6891 10.55 15.2391 10 15.2391H4C3.45 15.2391 3 15.6891 3 16.2391V20.2391C3 20.7891 3.45 21.2391 4 21.2391ZM14 21.2391H20C20.55 21.2391 21 20.7891 21 20.2391V12.2391C21 11.6891 20.55 11.2391 20 11.2391H14C13.45 11.2391 13 11.6891 13 12.2391V20.2391C13 20.7891 13.45 21.2391 14 21.2391ZM13 4.23907V8.23907C13 8.78907 13.45 9.23907 14 9.23907H20C20.55 9.23907 21 8.78907 21 8.23907V4.23907C21 3.68907 20.55 3.23907 20 3.23907H14C13.45 3.23907 13 3.68907 13 4.23907Z" fill="url(#paint0_linear_92_29)"/>
<defs>
<linearGradient id="paint0_linear_92_29" x1="12" y1="3.23907" x2="12" y2="21.2391" gradientUnits="userSpaceOnUse">
<stop stop-color="#7C4FFC"/>
<stop offset="1" stop-color="#51B7FA"/>
</linearGradient>
</defs>
</svg>