<svg xmlns="http://www.w3.org/2000/svg" width="21" height="25" viewBox="0 0 21 25" fill="none">
<g clip-path="url(#clip0_92_89)">
<path d="M6 0.239075C6.82969 0.239075 7.5 0.909387 7.5 1.73907V3.23907H13.5V1.73907C13.5 0.909387 14.1703 0.239075 15 0.239075C15.8297 0.239075 16.5 0.909387 16.5 1.73907V3.23907H18.75C19.9922 3.23907 21 4.24689 21 5.48907V7.73907H0V5.48907C0 4.24689 1.00781 3.23907 2.25 3.23907H4.5V1.73907C4.5 0.909387 5.17031 0.239075 6 0.239075ZM0 9.23907H21V21.9891C21 23.2313 19.9922 24.2391 18.75 24.2391H2.25C1.00781 24.2391 0 23.2313 0 21.9891V9.23907ZM3 12.9891V14.4891C3 14.9016 3.3375 15.2391 3.75 15.2391H5.25C5.6625 15.2391 6 14.9016 6 14.4891V12.9891C6 12.5766 5.6625 12.2391 5.25 12.2391H3.75C3.3375 12.2391 3 12.5766 3 12.9891ZM9 12.9891V14.4891C9 14.9016 9.3375 15.2391 9.75 15.2391H11.25C11.6625 15.2391 12 14.9016 12 14.4891V12.9891C12 12.5766 11.6625 12.2391 11.25 12.2391H9.75C9.3375 12.2391 9 12.5766 9 12.9891ZM15.75 12.2391C15.3375 12.2391 15 12.5766 15 12.9891V14.4891C15 14.9016 15.3375 15.2391 15.75 15.2391H17.25C17.6625 15.2391 18 14.9016 18 14.4891V12.9891C18 12.5766 17.6625 12.2391 17.25 12.2391H15.75ZM3 18.9891V20.4891C3 20.9016 3.3375 21.2391 3.75 21.2391H5.25C5.6625 21.2391 6 20.9016 6 20.4891V18.9891C6 18.5766 5.6625 18.2391 5.25 18.2391H3.75C3.3375 18.2391 3 18.5766 3 18.9891ZM9.75 18.2391C9.3375 18.2391 9 18.5766 9 18.9891V20.4891C9 20.9016 9.3375 21.2391 9.75 21.2391H11.25C11.6625 21.2391 12 20.9016 12 20.4891V18.9891C12 18.5766 11.6625 18.2391 11.25 18.2391H9.75ZM15 18.9891V20.4891C15 20.9016 15.3375 21.2391 15.75 21.2391H17.25C17.6625 21.2391 18 20.9016 18 20.4891V18.9891C18 18.5766 17.6625 18.2391 17.25 18.2391H15.75C15.3375 18.2391 15 18.5766 15 18.9891Z" fill="url(#paint0_linear_92_89)"/>
</g>
<defs>
<linearGradient id="paint0_linear_92_89" x1="10.5" y1="0.239075" x2="10.5" y2="24.2391" gradientUnits="userSpaceOnUse">
<stop stop-color="#7C4FFC"/>
<stop offset="1" stop-color="#51B7FA"/>
</linearGradient>
<clipPath id="clip0_92_89">
<rect width="21" height="24" fill="white" transform="translate(0 0.239075)"/>
</clipPath>
</defs>
</svg>