<svg width="16" height="12" viewBox="0 0 16 12" fill="none" xmlns="http://www.w3.org/2000/svg">
<path d="M15.5 9.75L15.5 2.25C15.5 0.975 14.525 -4.26186e-08 13.25 -9.83506e-08L8.75 -2.95052e-07L8.75 6.45L10.475 4.725C10.775 4.425 11.225 4.425 11.525 4.725C11.825 5.025 11.825 5.475 11.525 5.775L8.525 8.775C8.225 9.075 7.775 9.075 7.475 8.775L4.475 5.775C4.175 5.475 4.175 5.025 4.475 4.725C4.775 4.425 5.225 4.425 5.525 4.725L7.25 6.45L7.25 -3.60619e-07L2.75 -5.5732e-07C1.475 -6.13052e-07 0.5 0.974999 0.5 2.25L0.5 9.75C0.5 11.025 1.475 12 2.75 12L13.25 12C14.525 12 15.5 11.025 15.5 9.75Z" fill="#7C4FFC"/>
</svg>
