<svg xmlns="http://www.w3.org/2000/svg" width="12" height="13" viewBox="0 0 12 13" fill="none">
<path d="M4.0013 1.83332C3.82449 1.83332 3.65492 1.90356 3.5299 2.02858C3.40487 2.15361 3.33464 2.32317 3.33464 2.49999C3.33464 2.6768 3.40487 2.84637 3.5299 2.97139C3.65492 3.09641 3.82449 3.16665 4.0013 3.16665C4.17811 3.16665 4.34768 3.09641 4.47271 2.97139C4.59773 2.84637 4.66797 2.6768 4.66797 2.49999C4.66797 2.32317 4.59773 2.15361 4.47271 2.02858C4.34768 1.90356 4.17811 1.83332 4.0013 1.83332ZM2.11464 1.83332C2.25237 1.44296 2.50779 1.10494 2.8457 0.865845C3.18361 0.626749 3.58736 0.498352 4.0013 0.498352C4.41524 0.498352 4.819 0.626749 5.1569 0.865845C5.49481 1.10494 5.75023 1.44296 5.88797 1.83332H10.668C10.8448 1.83332 11.0143 1.90356 11.1394 2.02858C11.2644 2.15361 11.3346 2.32317 11.3346 2.49999C11.3346 2.6768 11.2644 2.84637 11.1394 2.97139C11.0143 3.09641 10.8448 3.16665 10.668 3.16665H5.88797C5.75023 3.55701 5.49481 3.89503 5.1569 4.13413C4.819 4.37322 4.41524 4.50162 4.0013 4.50162C3.58736 4.50162 3.18361 4.37322 2.8457 4.13413C2.50779 3.89503 2.25237 3.55701 2.11464 3.16665H1.33464C1.15782 3.16665 0.988255 3.09641 0.863231 2.97139C0.738207 2.84637 0.667969 2.6768 0.667969 2.49999C0.667969 2.32317 0.738207 2.15361 0.863231 2.02858C0.988255 1.90356 1.15782 1.83332 1.33464 1.83332H2.11464ZM8.0013 5.83332C7.82449 5.83332 7.65492 5.90356 7.5299 6.02858C7.40487 6.15361 7.33464 6.32317 7.33464 6.49999C7.33464 6.6768 7.40487 6.84637 7.5299 6.97139C7.65492 7.09641 7.82449 7.16665 8.0013 7.16665C8.17811 7.16665 8.34768 7.09641 8.47271 6.97139C8.59773 6.84637 8.66797 6.6768 8.66797 6.49999C8.66797 6.32317 8.59773 6.15361 8.47271 6.02858C8.34768 5.90356 8.17811 5.83332 8.0013 5.83332ZM6.11464 5.83332C6.25237 5.44296 6.50779 5.10494 6.8457 4.86585C7.18361 4.62675 7.58736 4.49835 8.0013 4.49835C8.41524 4.49835 8.819 4.62675 9.1569 4.86585C9.49481 5.10494 9.75023 5.44296 9.88797 5.83332H10.668C10.8448 5.83332 11.0143 5.90356 11.1394 6.02858C11.2644 6.15361 11.3346 6.32317 11.3346 6.49999C11.3346 6.6768 11.2644 6.84637 11.1394 6.97139C11.0143 7.09641 10.8448 7.16665 10.668 7.16665H9.88797C9.75023 7.55701 9.49481 7.89503 9.1569 8.13413C8.819 8.37322 8.41524 8.50162 8.0013 8.50162C7.58736 8.50162 7.18361 8.37322 6.8457 8.13413C6.50779 7.89503 6.25237 7.55701 6.11464 7.16665H1.33464C1.15782 7.16665 0.988255 7.09641 0.863231 6.97139C0.738207 6.84637 0.667969 6.6768 0.667969 6.49999C0.667969 6.32317 0.738207 6.15361 0.863231 6.02858C0.988255 5.90356 1.15782 5.83332 1.33464 5.83332H6.11464ZM4.0013 9.83332C3.82449 9.83332 3.65492 9.90356 3.5299 10.0286C3.40487 10.1536 3.33464 10.3232 3.33464 10.5C3.33464 10.6768 3.40487 10.8464 3.5299 10.9714C3.65492 11.0964 3.82449 11.1667 4.0013 11.1667C4.17811 11.1667 4.34768 11.0964 4.47271 10.9714C4.59773 10.8464 4.66797 10.6768 4.66797 10.5C4.66797 10.3232 4.59773 10.1536 4.47271 10.0286C4.34768 9.90356 4.17811 9.83332 4.0013 9.83332ZM2.11464 9.83332C2.25237 9.44296 2.50779 9.10494 2.8457 8.86584C3.18361 8.62675 3.58736 8.49835 4.0013 8.49835C4.41524 8.49835 4.819 8.62675 5.1569 8.86584C5.49481 9.10494 5.75023 9.44296 5.88797 9.83332H10.668C10.8448 9.83332 11.0143 9.90356 11.1394 10.0286C11.2644 10.1536 11.3346 10.3232 11.3346 10.5C11.3346 10.6768 11.2644 10.8464 11.1394 10.9714C11.0143 11.0964 10.8448 11.1667 10.668 11.1667H5.88797C5.75023 11.557 5.49481 11.895 5.1569 12.1341C4.819 12.3732 4.41524 12.5016 4.0013 12.5016C3.58736 12.5016 3.18361 12.3732 2.8457 12.1341C2.50779 11.895 2.25237 11.557 2.11464 11.1667H1.33464C1.15782 11.1667 0.988255 11.0964 0.863231 10.9714C0.738207 10.8464 0.667969 10.6768 0.667969 10.5C0.667969 10.3232 0.738207 10.1536 0.863231 10.0286C0.988255 9.90356 1.15782 9.83332 1.33464 9.83332H2.11464Z" fill="url(#paint0_linear_92_2265)"/>
<defs>
<linearGradient id="paint0_linear_92_2265" x1="6.0013" y1="0.498352" x2="6.0013" y2="12.5016" gradientUnits="userSpaceOnUse">
<stop stop-color="#7C4FFC"/>
<stop offset="1" stop-color="#51B7FA"/>
</linearGradient>
</defs>
</svg>