<svg xmlns="http://www.w3.org/2000/svg" width="24" height="25" viewBox="0 0 24 25" fill="none">
<path d="M21 4.9944V16.2444C20.9994 16.3512 20.976 16.4566 20.9314 16.5536C20.8868 16.6506 20.8219 16.737 20.7413 16.8069C19.3088 18.0472 17.9391 18.4944 16.6331 18.4944C14.8603 18.4944 13.2047 17.675 11.6644 16.9147C9.17531 15.6819 7.01156 14.6141 4.5 16.5978V20.7444C4.5 20.9433 4.42098 21.1341 4.28033 21.2747C4.13968 21.4154 3.94891 21.4944 3.75 21.4944C3.55109 21.4944 3.36032 21.4154 3.21967 21.2747C3.07902 21.1341 3 20.9433 3 20.7444V4.9944C3.00072 4.88756 3.02426 4.7821 3.06905 4.68509C3.11383 4.58808 3.17883 4.50175 3.25969 4.4319C6.63469 1.50878 9.66375 3.00597 12.3337 4.3269C14.9062 5.60003 17.1366 6.70065 19.7587 4.4319C19.8671 4.33795 20.0002 4.27705 20.1421 4.25642C20.2841 4.23578 20.4289 4.25628 20.5596 4.31549C20.6902 4.37469 20.8012 4.47012 20.8792 4.59045C20.9573 4.71078 20.9992 4.85097 21 4.9944Z" fill="url(#paint0_linear_92_81)"/>
<defs>
<linearGradient id="paint0_linear_92_81" x1="12" y1="2.74731" x2="12" y2="21.4944" gradientUnits="userSpaceOnUse">
<stop stop-color="#7C4FFC"/>
<stop offset="1" stop-color="#51B7FA"/>
</linearGradient>
</defs>
</svg>