<svg xmlns="http://www.w3.org/2000/svg" width="24" height="25" viewBox="0 0 24 25" fill="none">
<g clip-path="url(#clip0_92_97)">
<path d="M7.33464 11.2391L6.66797 13.3057H8.0013L7.33464 11.2391Z" fill="url(#paint0_linear_92_97)"/>
<path d="M20.2018 2.23907H9.53516V5.57241H12.2018V6.90574H3.53516C2.40182 6.90574 1.53516 7.77241 1.53516 8.90574V16.2391C1.53516 17.3724 2.40182 18.2391 3.53516 18.2391H4.20182V21.6391L8.40182 18.2391H12.8685V13.5724H20.2018C21.3352 13.5724 22.2018 12.7057 22.2018 11.5724V4.23907C22.2018 3.10574 21.3352 2.23907 20.2018 2.23907ZM8.73516 15.5057L8.40182 14.4391H6.33516L5.93516 15.5057H4.33516L6.53516 9.57241H8.13516L10.3352 15.5057H8.73516ZM18.8685 10.2391V11.5724C18.0018 11.5724 17.0685 11.3057 16.2685 10.9057C15.4685 11.3057 14.5352 11.5057 13.6018 11.5724L13.5352 10.2391C14.0018 10.2391 14.4685 10.1724 14.9352 10.0391C14.3352 9.43907 13.9352 8.70574 13.7352 7.90574H15.1352C15.3352 8.50574 15.7352 8.97241 16.2018 9.37241C16.9352 8.77241 17.4018 7.90574 17.4685 6.90574H13.4685V5.57241H15.4685V4.23907H16.8018V5.57241H19.0018L19.0685 6.23907C19.1352 7.63907 18.6018 9.03907 17.6018 10.0391C18.0685 10.1724 18.4685 10.2391 18.8685 10.2391Z" fill="url(#paint1_linear_92_97)"/>
</g>
<defs>
<linearGradient id="paint0_linear_92_97" x1="7.33464" y1="11.2391" x2="7.33464" y2="13.3057" gradientUnits="userSpaceOnUse">
<stop stop-color="#7C4FFC"/>
<stop offset="1" stop-color="#51B7FA"/>
</linearGradient>
<linearGradient id="paint1_linear_92_97" x1="11.8685" y1="2.23907" x2="11.8685" y2="21.6391" gradientUnits="userSpaceOnUse">
<stop stop-color="#7C4FFC"/>
<stop offset="1" stop-color="#51B7FA"/>
</linearGradient>
<clipPath id="clip0_92_97">
<rect width="24" height="24" fill="white" transform="translate(0 0.239075)"/>
</clipPath>
</defs>
</svg>