<svg width="18" height="18" viewBox="0 0 18 18" fill="none" xmlns="http://www.w3.org/2000/svg">
<path d="M12.9789 7.143L15.3654 9.5295C15.7527 9.9116 16.0606 10.3665 16.2713 10.8681C16.482 11.3697 16.5914 11.9079 16.5932 12.452C16.595 12.996 16.4892 13.535 16.2819 14.038C16.0745 14.5409 15.7697 14.9979 15.3851 15.3826C15.0004 15.7673 14.5434 16.0721 14.0404 16.2794C13.5375 16.4868 12.9984 16.5926 12.4544 16.5908C11.9104 16.5889 11.3721 16.4795 10.8705 16.2688C10.369 16.0581 9.91405 15.7502 9.53195 15.363L8.73695 14.568C8.62945 14.4643 8.54369 14.3402 8.48467 14.2029C8.42564 14.0657 8.39454 13.9181 8.39317 13.7687C8.3918 13.6194 8.4202 13.4712 8.4767 13.3329C8.5332 13.1946 8.61668 13.069 8.72225 12.9633C8.82783 12.8576 8.9534 12.774 9.09163 12.7174C9.22986 12.6608 9.37799 12.6322 9.52737 12.6335C9.67674 12.6347 9.82438 12.6657 9.96166 12.7246C10.0989 12.7835 10.2231 12.8691 10.327 12.9765L11.1235 13.7722C11.4757 14.1213 11.9518 14.3166 12.4476 14.3154C12.9435 14.3143 13.4187 14.1168 13.7693 13.7661C14.1199 13.4154 14.3173 12.9401 14.3183 12.4443C14.3193 11.9484 14.1238 11.4724 13.7747 11.1202L11.3882 8.73375C11.1303 8.47569 10.8026 8.2985 10.4455 8.22389C10.0883 8.14929 9.71713 8.18052 9.37745 8.31375C9.25595 8.36175 9.14345 8.41125 9.03695 8.46075L8.68895 8.6235C8.22395 8.8335 7.8662 8.9235 7.41095 8.469C6.75695 7.815 6.92645 7.21125 7.7237 6.6615C8.51798 6.1153 9.47842 5.86441 10.4384 5.95236C11.3983 6.04031 12.2971 6.46156 12.9789 7.143ZM8.47145 2.6355L9.26645 3.4305C9.47148 3.64258 9.58501 3.9267 9.58259 4.22167C9.58016 4.51665 9.46198 4.79887 9.25349 5.00755C9.04501 5.21624 8.7629 5.33468 8.46793 5.33739C8.17296 5.34009 7.88872 5.22683 7.67645 5.022L6.8807 4.227C6.70779 4.04787 6.50093 3.90497 6.2722 3.80663C6.04347 3.7083 5.79745 3.65651 5.54849 3.65428C5.29953 3.65204 5.05262 3.69941 4.82216 3.79363C4.5917 3.88784 4.38232 4.027 4.20622 4.203C4.03012 4.379 3.89084 4.58831 3.79649 4.81871C3.70215 5.04911 3.65464 5.296 3.65673 5.54496C3.65883 5.79392 3.71048 6.03997 3.80868 6.26876C3.90688 6.49754 4.04967 6.70448 4.2287 6.8775L6.6152 9.264C6.87315 9.52205 7.20078 9.69924 7.55794 9.77385C7.9151 9.84845 8.28627 9.81722 8.62595 9.684C8.74745 9.63599 8.85995 9.5865 8.96645 9.53699L9.31445 9.37424C9.77945 9.16425 10.1379 9.07424 10.5925 9.52875C11.2464 10.1827 11.077 10.7865 10.2797 11.3362C9.48542 11.8824 8.52498 12.1333 7.56504 12.0454C6.60511 11.9574 5.70625 11.5362 5.02445 10.8547L2.63795 8.46825C2.25069 8.08615 1.94285 7.63122 1.73213 7.12965C1.52142 6.62809 1.412 6.0898 1.41018 5.54577C1.40836 5.00175 1.51417 4.46273 1.72151 3.95977C1.92886 3.4568 2.23365 2.99982 2.61834 2.61514C3.00303 2.23045 3.46001 1.92566 3.96297 1.71831C4.46594 1.51096 5.00495 1.40515 5.54898 1.40698C6.093 1.4088 6.63129 1.51822 7.13286 1.72893C7.63442 1.93964 8.08935 2.24824 8.47145 2.6355Z" fill="#7C4FFC"/>
</svg>
