<svg width="16" height="16" viewBox="0 0 16 16" fill="none" xmlns="http://www.w3.org/2000/svg">
<path fill-rule="evenodd" clip-rule="evenodd" d="M4 5.33333C4 4.27247 4.42143 3.25505 5.17157 2.5049C5.92172 1.75476 6.93913 1.33333 8 1.33333C9.06087 1.33333 10.0783 1.75476 10.8284 2.5049C11.5786 3.25505 12 4.27247 12 5.33333H12.6667C13.0203 5.33333 13.3594 5.47381 13.6095 5.72386C13.8595 5.97391 14 6.31304 14 6.66667V13.3333C14 13.687 13.8595 14.0261 13.6095 14.2761C13.3594 14.5262 13.0203 14.6667 12.6667 14.6667H3.33333C2.97971 14.6667 2.64057 14.5262 2.39052 14.2761C2.14048 14.0261 2 13.687 2 13.3333V6.66667C2 6.31304 2.14048 5.97391 2.39052 5.72386C2.64057 5.47381 2.97971 5.33333 3.33333 5.33333H4ZM8 2.66667C8.70724 2.66667 9.38552 2.94762 9.88562 3.44771C10.3857 3.94781 10.6667 4.62609 10.6667 5.33333H5.33333C5.33333 4.62609 5.61428 3.94781 6.11438 3.44771C6.61448 2.94762 7.29276 2.66667 8 2.66667ZM9.33333 9.33333C9.33333 9.56738 9.27172 9.79729 9.15469 9.99998C9.03767 10.2027 8.86935 10.371 8.66667 10.488V11.3333C8.66667 11.5101 8.59643 11.6797 8.4714 11.8047C8.34638 11.9298 8.17681 12 8 12C7.82319 12 7.65362 11.9298 7.5286 11.8047C7.40357 11.6797 7.33333 11.5101 7.33333 11.3333V10.488C7.07916 10.3412 6.88052 10.1147 6.76821 9.84354C6.65589 9.57238 6.63619 9.27174 6.71216 8.98824C6.78812 8.70474 6.95551 8.45422 7.18836 8.27554C7.4212 8.09687 7.7065 8.00001 8 8C8.35362 8 8.69276 8.14047 8.94281 8.39052C9.19286 8.64057 9.33333 8.97971 9.33333 9.33333Z" fill="black"/>
</svg>
