<svg xmlns="http://www.w3.org/2000/svg" width="24" height="25" viewBox="0 0 24 25" fill="none">
<g clip-path="url(#clip0_92_107)">
<path d="M21.1073 5.89532H6.65625C5.0625 5.89532 3.75 7.18486 3.75 8.77017V20.2705C3.75 21.8558 5.0625 23.1453 6.65625 23.1453H21.0938C22.6875 23.1453 24 21.9181 24 20.3328V8.77017C24 7.18486 22.7025 5.89532 21.1073 5.89532ZM17.4909 8.77064C17.9168 8.77323 18.3324 8.90189 18.6853 9.14039C19.0382 9.3789 19.3125 9.71656 19.4737 10.1108C19.6349 10.505 19.6757 10.9381 19.591 11.3555C19.5063 11.7729 19.3 12.1559 18.9979 12.4562C18.6958 12.7564 18.3116 12.9605 17.8937 13.0426C17.4758 13.1248 17.0429 13.0813 16.6496 12.9177C16.2564 12.7541 15.9204 12.4778 15.6841 12.1235C15.4477 11.7692 15.3216 11.3528 15.3216 10.9269C15.3238 10.3534 15.5535 9.80419 15.9602 9.39985C16.3669 8.99551 16.9174 8.76905 17.4909 8.77017V8.77064ZM6.63703 21.7081C5.84016 21.7081 5.23734 21.0636 5.23734 20.2709V17.232L9.47766 13.445C9.89219 13.0804 10.4296 12.8865 10.9814 12.9024C11.5333 12.9183 12.0586 13.1429 12.4514 13.5308L15.3877 16.4422L10.0908 21.7077L6.63703 21.7081ZM22.5 20.2705C22.4999 20.4594 22.4626 20.6464 22.3903 20.8209C22.3179 20.9954 22.2118 21.1539 22.0781 21.2874C21.9444 21.4209 21.7857 21.5267 21.6111 21.5988C21.4365 21.6709 21.2494 21.7079 21.0605 21.7077H12.1406L17.6287 16.2547C18.0182 15.9262 18.511 15.7453 19.0205 15.7439C19.53 15.7426 20.0238 15.9208 20.415 16.2472L22.5 18.0167V20.2705Z" fill="url(#paint0_linear_92_107)"/>
<path d="M18 2.14532H3C2.20435 2.14532 1.44129 2.4614 0.87868 3.024C0.316071 3.58661 0 4.34968 0 5.14532L0 17.1453C0.00054868 17.8104 0.221737 18.4566 0.628907 18.9825C1.03608 19.5084 1.60622 19.8844 2.25 20.0516V7.77032C2.25 6.87522 2.60558 6.01677 3.23851 5.38384C3.87145 4.7509 4.72989 4.39532 5.625 4.39532H20.9062C20.7391 3.75154 20.3631 3.1814 19.8372 2.77423C19.3113 2.36706 18.6651 2.14587 18 2.14532Z" fill="url(#paint1_linear_92_107)"/>
</g>
<defs>
<linearGradient id="paint0_linear_92_107" x1="13.875" y1="5.89532" x2="13.875" y2="23.1453" gradientUnits="userSpaceOnUse">
<stop stop-color="#7C4FFC"/>
<stop offset="1" stop-color="#51B7FA"/>
</linearGradient>
<linearGradient id="paint1_linear_92_107" x1="10.4531" y1="2.14532" x2="10.4531" y2="20.0516" gradientUnits="userSpaceOnUse">
<stop stop-color="#7C4FFC"/>
<stop offset="1" stop-color="#51B7FA"/>
</linearGradient>
<clipPath id="clip0_92_107">
<rect width="24" height="24" fill="white" transform="translate(0 0.645325)"/>
</clipPath>
</defs>
</svg>