<svg width="18" height="19" viewBox="0 0 18 19" fill="none" xmlns="http://www.w3.org/2000/svg">
<path d="M5.04614 2.23763L6.29135 1.8622C6.70231 1.7385 7.14424 1.76851 7.5347 1.94665C7.92517 2.12479 8.23749 2.43888 8.41342 2.83035L9.28642 4.77178C9.43794 5.10858 9.48017 5.48439 9.40719 5.84642C9.3342 6.20846 9.14967 6.53855 8.87949 6.79035L7.55071 8.02849C7.37264 8.19756 7.50764 8.85649 8.15821 9.98406C8.80942 11.1123 9.31278 11.5584 9.54485 11.489L11.2857 10.9567C11.6386 10.8488 12.0164 10.854 12.3662 10.9716C12.7159 11.0891 13.0201 11.3132 13.2361 11.6124L14.4768 13.3321C14.7275 13.6793 14.8435 14.1057 14.8034 14.5321C14.7633 14.9584 14.5698 15.3557 14.2589 15.6502L13.2998 16.5586C12.9901 16.8518 12.6083 17.0576 12.1931 17.1551C11.778 17.2526 11.3444 17.2381 10.9366 17.1133C8.92706 16.4981 7.06599 14.6724 5.32835 11.6619C3.58685 8.64692 2.92921 6.10378 3.38756 4.02606C3.48001 3.6074 3.68244 3.22097 3.97398 2.90661C4.26551 2.59224 4.63562 2.36132 5.04614 2.23763Z" fill="white"/>
</svg>
