<svg xmlns="http://www.w3.org/2000/svg" width="24" height="25" viewBox="0 0 24 25" fill="none">
<path d="M22 12.6453L18 16.6453L16.59 15.2353L18.17 13.6453H12.94C12.7734 15.1403 12.2337 16.5694 11.3705 17.8013C10.5073 19.0332 9.3483 20.0284 8 20.6953C7.9856 21.4819 7.66334 22.2314 7.10243 22.783C6.54151 23.3345 5.78667 23.6441 5 23.6453C3.34 23.6453 2 22.3053 2 20.6453C2 18.9853 3.34 17.6453 5 17.6453C5.95 17.6453 6.78 18.0953 7.33 18.7853C8.28645 18.2674 9.10838 17.5327 9.73003 16.6402C10.3517 15.7477 10.7558 14.722 10.91 13.6453H7.81C7.4 14.8053 6.3 15.6453 5 15.6453C3.34 15.6453 2 14.3053 2 12.6453C2 10.9853 3.34 9.64532 5 9.64532C6.3 9.64532 7.4 10.4853 7.82 11.6453H10.92C10.6 9.41532 9.23 7.54532 7.33 6.50532C6.78 7.19532 5.95 7.64532 5 7.64532C3.34 7.64532 2 6.30532 2 4.64532C2 2.98532 3.34 1.64532 5 1.64532C5.78612 1.64525 6.54063 1.95477 7.10023 2.50689C7.65983 3.059 7.97948 3.80928 7.99 4.59532C9.3383 5.26226 10.4973 6.25741 11.3605 7.48932C12.2237 8.72122 12.7634 10.1503 12.93 11.6453H18.16L16.58 10.0553L18 8.64532L22 12.6453Z" fill="url(#paint0_linear_92_37)"/>
<defs>
<linearGradient id="paint0_linear_92_37" x1="12" y1="1.64532" x2="12" y2="23.6453" gradientUnits="userSpaceOnUse">
<stop stop-color="#7C4FFC"/>
<stop offset="1" stop-color="#51B7FA"/>
</linearGradient>
</defs>
</svg>