<svg xmlns="http://www.w3.org/2000/svg" width="24" height="28" viewBox="0 0 24 28" fill="none">
<path d="M14.9062 6.66567L12.0234 8.54828L9.12844 6.66567L12.0234 4.78305L14.9062 6.66567ZM19.2975 9.52334L16.4025 11.406L19.2975 13.2886L22.1803 11.406L19.2975 9.52334ZM5.49797 13.7758L8.39297 15.6585L11.2758 13.7758L8.39297 11.8932L5.49797 13.7758ZM12.038 9.52703L9.14297 11.4097L12.038 13.2923L14.9208 11.4097L12.038 9.52703ZM1.45312 15.8794L4.35938 17.7615V14.0174L1.45312 12.1374V15.8815V15.8794ZM18.9375 14.5083L16.0312 16.3904V20.1314L18.9375 18.2509V14.5083ZM8.38547 7.15715L5.49047 9.03977L8.38547 10.9224L11.2683 9.03977L8.38547 7.15715ZM5.10938 18.2493L8.01562 20.1314V16.3904L5.10938 14.5083V18.2525V18.2493ZM15.6755 11.8974L12.7805 13.7801L15.6755 15.6627L18.5583 13.7801L15.6755 11.8974ZM11.6719 18.7635L8.76562 16.8808V20.625L11.6719 22.5076V18.7635ZM15.2812 16.8824L12.4219 18.7635V22.5044L15.2812 20.6239V16.8824ZM15.6595 7.15293L12.7645 9.03555L15.6595 10.9182L18.5423 9.03555L15.6595 7.15293ZM4.75641 9.52334L1.86094 11.406L4.75594 13.2886L7.63875 11.406L4.75641 9.52334ZM22.5469 12.1458L19.6875 14.0263V17.7673L22.5469 15.8868V12.1458ZM9.13547 16.1499L12.0305 18.0326L14.9133 16.1499L12.0305 14.2673L9.13547 16.1499Z" fill="url(#paint0_linear_92_116)"/>
<defs>
<linearGradient id="paint0_linear_92_116" x1="12" y1="4.78305" x2="12" y2="22.5076" gradientUnits="userSpaceOnUse">
<stop stop-color="#7C4FFC"/>
<stop offset="1" stop-color="#51B7FA"/>
</linearGradient>
</defs>
</svg>