<svg xmlns="http://www.w3.org/2000/svg" width="16" height="17" viewBox="0 0 16 17" fill="none">
<path d="M3.68936 15.0907C3.79721 15.1468 3.91829 15.1724 4.03962 15.1649C4.16095 15.1574 4.27794 15.117 4.37803 15.048L13.0447 9.048C13.1333 8.98664 13.2056 8.90474 13.2556 8.8093C13.3056 8.71387 13.3317 8.60773 13.3317 8.5C13.3317 8.39226 13.3056 8.28613 13.2556 8.19069C13.2056 8.09526 13.1333 8.01335 13.0447 7.952L4.37803 1.952C4.27801 1.88279 4.16097 1.84227 4.03957 1.83481C3.91818 1.82735 3.79705 1.85325 3.68932 1.90969C3.58158 1.96613 3.49134 2.05097 3.42836 2.15503C3.36539 2.25908 3.33207 2.37837 3.33203 2.5V14.5C3.33201 14.6217 3.3653 14.7411 3.42829 14.8452C3.49128 14.9493 3.58157 15.0342 3.68936 15.0907Z" fill="#7C4FFC"/>
</svg>