<svg width="14" height="14" viewBox="0 0 14 14" fill="none" xmlns="http://www.w3.org/2000/svg">
<path d="M13 6.25002C12.8166 4.93019 12.2043 3.70727 11.2575 2.76965C10.3107 1.83202 9.08182 1.23171 7.76025 1.06119C6.43869 0.890664 5.09772 1.15939 3.9439 1.82596C2.79009 2.49253 1.88744 3.51998 1.375 4.75002M1 1.75002V4.75002H4M1 7.75002C1.18342 9.06986 1.7957 10.2928 2.74252 11.2304C3.68934 12.168 4.91818 12.7683 6.23975 12.9389C7.56131 13.1094 8.90228 12.8407 10.0561 12.1741C11.2099 11.5075 12.1126 10.4801 12.625 9.25002M13 12.25V9.25002H10" stroke="white" stroke-width="2" stroke-linecap="round" stroke-linejoin="round"/>
</svg>
