<svg width="18" height="18" viewBox="0 0 18 18" fill="none" xmlns="http://www.w3.org/2000/svg">
<path d="M12.75 1.5H5.25C3.975 1.5 3 2.475 3 3.75V8.25H9.45L7.725 6.525C7.425 6.225 7.425 5.775 7.725 5.475C8.025 5.175 8.475 5.175 8.775 5.475L11.775 8.475C12.075 8.775 12.075 9.225 11.775 9.525L8.775 12.525C8.475 12.825 8.025 12.825 7.725 12.525C7.425 12.225 7.425 11.775 7.725 11.475L9.45 9.75H3V14.25C3 15.525 3.975 16.5 5.25 16.5H12.75C14.025 16.5 15 15.525 15 14.25V3.75C15 2.475 14.025 1.5 12.75 1.5Z" fill="white"/>
</svg>
