<svg xmlns="http://www.w3.org/2000/svg" width="24" height="25" viewBox="0 0 24 25" fill="none">
<path fill-rule="evenodd" clip-rule="evenodd" d="M12.3513 9.48749C12.1264 9.26245 12 8.95728 12 8.63909C12 8.32089 12.1264 8.01572 12.3513 7.79069L15.9513 4.19069C16.062 4.07607 16.1945 3.98466 16.3409 3.92177C16.4873 3.85887 16.6447 3.82577 16.8041 3.82439C16.9634 3.823 17.1214 3.85336 17.2689 3.9137C17.4164 3.97404 17.5503 4.06314 17.663 4.17581C17.7757 4.28848 17.8648 4.42247 17.9251 4.56994C17.9855 4.71742 18.0158 4.87543 18.0144 5.03477C18.0131 5.1941 17.98 5.35157 17.9171 5.49797C17.8542 5.64438 17.7628 5.77679 17.6481 5.88749L14.0481 9.48749C13.8231 9.71245 13.5179 9.83883 13.1997 9.83883C12.8815 9.83883 12.5764 9.71245 12.3513 9.48749Z" fill="url(#paint0_linear_92_68)"/>
<path fill-rule="evenodd" clip-rule="evenodd" d="M21.2469 9.48747C21.0219 9.71244 20.7167 9.83882 20.3985 9.83882C20.0803 9.83882 19.7752 9.71244 19.5501 9.48747L15.9501 5.88747C15.7315 5.66115 15.6106 5.35803 15.6133 5.04339C15.6161 4.72876 15.7423 4.42778 15.9648 4.20529C16.1872 3.9828 16.4882 3.8566 16.8029 3.85387C17.1175 3.85113 17.4206 3.97209 17.6469 4.19067L21.2469 7.79068C21.4719 8.01571 21.5983 8.32088 21.5983 8.63908C21.5983 8.95727 21.4719 9.26244 21.2469 9.48747Z" fill="url(#paint1_linear_92_68)"/>
<path fill-rule="evenodd" clip-rule="evenodd" d="M16.797 6.23907C17.1152 6.23907 17.4205 6.3655 17.6455 6.59055C17.8705 6.81559 17.997 7.12082 17.997 7.43907V17.0391C17.997 17.3573 17.8705 17.6626 17.6455 17.8876C17.4205 18.1126 17.1152 18.2391 16.797 18.2391C16.4787 18.2391 16.1735 18.1126 15.9484 17.8876C15.7234 17.6626 15.597 17.3573 15.597 17.0391V7.43907C15.597 7.12082 15.7234 6.81559 15.9484 6.59055C16.1735 6.3655 16.4787 6.23907 16.797 6.23907ZM11.6454 14.9907C11.8703 15.2157 11.9967 15.5209 11.9967 15.8391C11.9967 16.1573 11.8703 16.4624 11.6454 16.6875L8.04537 20.2875C7.81905 20.5061 7.51593 20.627 7.20129 20.6243C6.88666 20.6216 6.58568 20.4953 6.36319 20.2729C6.1407 20.0504 6.0145 19.7494 6.01176 19.4348C6.00903 19.1201 6.12998 18.817 6.34857 18.5907L9.94857 14.9907C10.1736 14.7657 10.4788 14.6393 10.797 14.6393C11.1152 14.6393 11.4203 14.7657 11.6454 14.9907Z" fill="url(#paint2_linear_92_68)"/>
<path fill-rule="evenodd" clip-rule="evenodd" d="M2.74978 14.9907C2.97481 14.7657 3.27998 14.6393 3.59818 14.6393C3.91638 14.6393 4.22155 14.7657 4.44658 14.9907L8.04658 18.5907C8.16119 18.7014 8.25261 18.8338 8.3155 18.9802C8.37839 19.1266 8.4115 19.2841 8.41288 19.4434C8.41427 19.6027 8.3839 19.7608 8.32357 19.9082C8.26323 20.0557 8.17413 20.1897 8.06146 20.3024C7.94878 20.415 7.8148 20.5041 7.66733 20.5645C7.51985 20.6248 7.36184 20.6552 7.2025 20.6538C7.04316 20.6524 6.8857 20.6193 6.7393 20.5564C6.59289 20.4935 6.46048 20.4021 6.34978 20.2875L2.74978 16.6875C2.52482 16.4625 2.39844 16.1573 2.39844 15.8391C2.39844 15.5209 2.52482 15.2157 2.74978 14.9907Z" fill="url(#paint3_linear_92_68)"/>
<path fill-rule="evenodd" clip-rule="evenodd" d="M7.2 18.2391C6.88174 18.2391 6.57652 18.1126 6.35147 17.8876C6.12643 17.6626 6 17.3573 6 17.0391V7.43907C6 7.12081 6.12643 6.81559 6.35147 6.59055C6.57652 6.3655 6.88174 6.23907 7.2 6.23907C7.51826 6.23907 7.82348 6.3655 8.04853 6.59055C8.27357 6.81559 8.4 7.12081 8.4 7.43907V17.0391C8.4 17.3573 8.27357 17.6626 8.04853 17.8876C7.82348 18.1126 7.51826 18.2391 7.2 18.2391Z" fill="url(#paint4_linear_92_68)"/>
<defs>
<linearGradient id="paint0_linear_92_68" x1="15.0072" y1="3.82434" x2="15.0072" y2="9.83883" gradientUnits="userSpaceOnUse">
<stop stop-color="#7C4FFC"/>
<stop offset="1" stop-color="#51B7FA"/>
</linearGradient>
<linearGradient id="paint1_linear_92_68" x1="18.6058" y1="3.85382" x2="18.6058" y2="9.83882" gradientUnits="userSpaceOnUse">
<stop stop-color="#7C4FFC"/>
<stop offset="1" stop-color="#51B7FA"/>
</linearGradient>
<linearGradient id="paint2_linear_92_68" x1="12.0043" y1="6.23907" x2="12.0043" y2="20.6243" gradientUnits="userSpaceOnUse">
<stop stop-color="#7C4FFC"/>
<stop offset="1" stop-color="#51B7FA"/>
</linearGradient>
<linearGradient id="paint3_linear_92_68" x1="5.40568" y1="14.6393" x2="5.40568" y2="20.6538" gradientUnits="userSpaceOnUse">
<stop stop-color="#7C4FFC"/>
<stop offset="1" stop-color="#51B7FA"/>
</linearGradient>
<linearGradient id="paint4_linear_92_68" x1="7.2" y1="6.23907" x2="7.2" y2="18.2391" gradientUnits="userSpaceOnUse">
<stop stop-color="#7C4FFC"/>
<stop offset="1" stop-color="#51B7FA"/>
</linearGradient>
</defs>
</svg>