<svg xmlns="http://www.w3.org/2000/svg" width="16" height="17" viewBox="0 0 16 17" fill="none">
<path d="M10 2.49999V14.5C9.99993 14.5936 9.97361 14.6852 9.92404 14.7646C9.87446 14.8439 9.80362 14.9077 9.71956 14.9488C9.63551 14.9899 9.54161 15.0066 9.44855 14.997C9.35548 14.9873 9.26699 14.9518 9.19312 14.8944L4.82812 11.5H2C1.73478 11.5 1.48043 11.3946 1.29289 11.2071C1.10536 11.0196 1 10.7652 1 10.5V6.49999C1 6.23478 1.10536 5.98042 1.29289 5.79288C1.48043 5.60535 1.73478 5.49999 2 5.49999H4.82812L9.19312 2.10562C9.26699 2.04819 9.35548 2.01265 9.44855 2.00302C9.54161 1.99339 9.63551 2.01007 9.71956 2.05115C9.80362 2.09224 9.87446 2.15608 9.92404 2.23543C9.97361 2.31477 9.99993 2.40643 10 2.49999ZM12 6.49999C11.8674 6.49999 11.7402 6.55267 11.6464 6.64644C11.5527 6.74021 11.5 6.86738 11.5 6.99999V9.99999C11.5 10.1326 11.5527 10.2598 11.6464 10.3535C11.7402 10.4473 11.8674 10.5 12 10.5C12.1326 10.5 12.2598 10.4473 12.3536 10.3535C12.4473 10.2598 12.5 10.1326 12.5 9.99999V6.99999C12.5 6.86738 12.4473 6.74021 12.3536 6.64644C12.2598 6.55267 12.1326 6.49999 12 6.49999Z" fill="#7C4FFC"/>
</svg>