<svg width="16" height="16" viewBox="0 0 16 16" fill="none" xmlns="http://www.w3.org/2000/svg">
<path d="M11.75 14V2C12.1625 2 12.5158 2.147 12.8098 2.441C13.1038 2.735 13.2505 3.088 13.25 3.5V12.5C13.25 12.9125 13.103 13.2658 12.809 13.5598C12.515 13.8538 12.162 14.0005 11.75 14ZM2 15.5C1.5875 15.5 1.23425 15.353 0.940251 15.059C0.646251 14.765 0.499501 14.412 0.500001 14V2C0.500001 1.5875 0.647001 1.23425 0.941001 0.940251C1.235 0.646251 1.588 0.499501 2 0.500001H8.75C9.1625 0.500001 9.51575 0.647001 9.80975 0.941001C10.1038 1.235 10.2505 1.588 10.25 2V14C10.25 14.4125 10.103 14.7658 9.809 15.0598C9.515 15.3538 9.162 15.5005 8.75 15.5H2ZM14.75 12.5V3.5C15.0625 3.5 15.3283 3.6095 15.5473 3.8285C15.7663 4.0475 15.8755 4.313 15.875 4.625V11.375C15.875 11.6875 15.7655 11.9533 15.5465 12.1723C15.3275 12.3913 15.062 12.5005 14.75 12.5Z" fill="#7C4FFC"/>
</svg>
